<?xml version="1.0" standalone="no"?>
<!DOCTYPE svg PUBLIC "-//W3C//DTD SVG 20010904//EN"
 "http://www.w3.org/TR/2001/REC-SVG-20010904/DTD/svg10.dtd">
<svg version="1.0" xmlns="http://www.w3.org/2000/svg"
 width="300.000000pt" height="300.000000pt" viewBox="0 0 300.000000 300.000000"
 preserveAspectRatio="xMidYMid meet">
<metadata>
Created by potrace 1.10, written by Peter Selinger 2001-2011
</metadata>
<g transform="translate(0.000000,300.000000) scale(0.100000,-0.100000)"
fill="#000000" stroke="none">
<path d="M263 2993 c92 -2 242 -2 335 0 92 1 16 3 -168 3 -184 0 -260 -2 -167
-3z"/>
<path d="M794 2972 c-57 -41 -114 -109 -114 -134 0 -33 45 -102 92 -142 31
-26 38 -36 25 -36 -10 0 -38 -13 -61 -30 -146 -100 -306 -363 -382 -630 -34
-120 -31 -228 11 -340 35 -93 35 -140 2 -210 -39 -82 -148 -202 -223 -246 -17
-10 -16 -12 11 -14 118 -8 212 -3 243 13 43 24 40 9 -8 -38 -22 -21 -40 -43
-40 -47 0 -17 37 -6 100 27 35 19 67 32 71 27 13 -12 56 -173 64 -232 3 -30 2
-74 -3 -97 -11 -50 -5 -53 29 -16 41 46 50 60 73 116 21 51 22 53 51 45 17 -4
59 -33 95 -64 36 -31 88 -67 115 -80 52 -25 95 -31 95 -14 0 6 -8 10 -18 10
-10 0 -33 13 -52 28 l-34 29 78 -15 c88 -17 91 -21 106 -126 8 -53 4 -93 -15
-166 -6 -21 0 -18 39 22 l46 47 0 -57 0 -57 -83 -30 -82 -30 -305 0 c-335 -1
-395 -6 -403 -36 -3 -11 4 -53 15 -95 l21 -75 -37 -72 c-19 -40 -44 -83 -55
-96 l-19 -25 -16 39 c-16 38 -200 235 -220 235 -5 0 36 -47 92 -103 100 -102
132 -151 132 -202 0 -31 3 -31 41 -2 29 21 43 22 267 29 130 3 275 11 322 17
198 27 176 29 198 -16 l20 -39 -151 -13 c-84 -8 -188 -17 -232 -21 l-80 -7 73
-1 c68 -2 333 21 395 34 23 5 29 2 34 -15 3 -12 9 -21 14 -21 16 0 10 31 -11
57 -27 35 -25 46 12 80 18 16 40 37 48 48 13 17 13 18 0 10 -8 -5 -29 -19 -47
-33 l-32 -24 -18 36 c-13 27 -23 36 -38 34 -15 -2 -20 -10 -19 -30 1 -15 -5
-29 -12 -32 -17 -6 -19 15 -3 31 8 8 8 13 0 17 -18 11 -13 44 8 55 14 8 22 7
31 -4 10 -12 10 -15 0 -15 -8 0 -11 -2 -8 -6 3 -3 21 4 39 15 31 19 34 19 54
3 11 -9 7 -2 -9 16 -32 35 -41 40 -33 18 4 -9 -2 -17 -13 -21 -29 -9 -42 2
-30 26 16 30 59 16 107 -34 34 -36 47 -63 74 -147 l32 -102 21 28 c59 81 72
90 148 103 40 7 82 15 93 18 19 6 19 5 0 -23 -10 -16 -29 -49 -42 -74 l-23
-45 43 -4 c23 -1 77 2 121 9 60 10 80 10 85 1 6 -9 11 -8 21 4 15 19 31 20 24
2 -3 -10 5 -14 28 -15 l32 -1 -32 21 c-34 21 -59 20 -261 -9 -25 -3 -42 -2
-39 3 30 55 84 141 92 146 6 4 -14 5 -44 3 l-55 -5 65 18 c36 9 88 30 115 46
l49 29 33 -39 c18 -21 33 -42 33 -46 0 -16 -35 -7 -59 15 -26 23 -27 23 -75 6
-27 -9 -43 -18 -36 -21 9 -3 2 -20 -23 -58 -20 -30 -35 -56 -32 -58 2 -2 32 5
67 16 35 12 83 26 107 32 l44 12 60 -59 c56 -54 70 -57 23 -4 l-21 24 25 -13
c14 -7 42 -24 63 -38 20 -14 39 -23 41 -21 1 2 10 15 19 29 l17 24 0 -27 c0
-44 15 -24 29 38 12 55 13 55 49 54 20 0 60 -4 87 -9 28 -4 52 -6 54 -4 2 2
-10 19 -28 39 -36 41 -37 45 -14 45 14 0 133 -113 133 -127 0 -3 -52 -3 -115
0 l-115 6 -16 -30 c-18 -35 -9 -54 12 -25 13 18 15 18 32 3 32 -29 37 -18 6
15 -16 17 -23 28 -15 23 7 -4 46 -7 86 -6 92 3 125 -5 125 -30 0 -10 6 -19 14
-19 10 0 12 11 8 45 -5 48 12 125 36 163 8 12 12 25 9 28 -3 3 -8 -4 -12 -15
-3 -12 -10 -21 -15 -21 -4 0 -11 -17 -15 -37 -8 -38 -8 -38 -20 28 -9 44 -24
81 -46 112 -18 26 -30 49 -28 52 3 3 34 -20 69 -50 35 -30 68 -55 74 -55 14 0
42 18 36 22 -3 2 -34 18 -70 36 -84 43 -162 100 -155 112 6 9 -80 130 -91 130
-3 0 -2 -5 2 -11 4 -7 -7 -1 -24 11 -41 30 -45 44 -20 67 11 10 26 30 34 45
10 20 23 28 42 29 17 1 20 3 10 6 -10 2 -18 10 -18 17 0 25 13 25 36 1 13 -14
28 -25 34 -25 6 0 -4 13 -21 28 -24 22 -30 33 -25 50 6 18 15 22 52 22 58 0
103 -11 339 -87 130 -42 242 -71 320 -84 144 -23 145 -23 145 -5 0 9 -17 17
-47 22 -27 4 -51 8 -55 10 -5 1 -17 2 -28 3 -11 0 -20 6 -20 12 0 6 34 46 75
88 56 58 75 84 75 105 l0 27 -57 -39 c-87 -59 -202 -119 -260 -136 l-52 -15
-183 60 c-116 39 -202 61 -234 62 l-51 1 22 66 c13 36 28 90 35 121 l12 55 46
-23 c36 -18 61 -23 126 -23 84 0 127 12 88 24 -27 9 -76 65 -104 119 -17 33
-56 189 -58 230 0 5 14 -1 31 -14 55 -39 199 -67 199 -39 0 6 -13 10 -29 10
-16 0 -39 8 -50 18 -21 17 -20 17 46 17 48 0 80 6 108 20 l40 20 -35 6 c-46 7
-89 31 -124 67 l-29 31 67 0 c49 0 80 6 120 24 51 24 136 91 136 108 0 4 -15
5 -34 2 -60 -10 -196 44 -196 78 0 5 12 9 28 9 15 1 38 7 52 14 l24 14 -41 11
c-22 6 -52 20 -67 32 -30 24 -60 75 -51 89 3 5 39 7 84 3 92 -7 158 7 215 44
l39 25 21 -25 c11 -14 40 -38 63 -55 23 -16 39 -32 36 -36 -3 -3 -1 -6 5 -6
23 0 11 16 -53 70 -35 30 -65 58 -65 62 0 4 -28 -8 -62 -25 -57 -30 -69 -32
-163 -32 -113 0 -149 14 -168 66 l-11 28 -72 -6 c-39 -3 -87 -3 -105 1 -41 7
-199 134 -349 278 -89 85 -187 164 -262 212 -53 34 -87 64 -112 100 -20 29
-49 65 -66 81 -16 16 -30 32 -30 36 0 11 182 -31 225 -53 131 -66 282 -214
418 -411 l87 -126 93 -46 c64 -32 109 -47 147 -50 30 -3 48 -2 40 1 -17 7 -40
34 -40 47 0 5 15 0 33 -11 29 -19 142 -65 192 -79 11 -3 2 7 -20 22 -22 15
-54 38 -71 51 -17 13 -34 21 -37 17 -15 -14 -135 129 -196 233 -35 60 -69 116
-75 125 -29 41 52 -54 91 -106 70 -94 182 -204 258 -254 111 -72 213 -108 230
-81 3 5 -9 36 -27 67 -49 85 -55 102 -88 277 -16 87 -32 161 -35 164 -6 6 1
-109 11 -170 3 -21 10 -40 15 -44 5 -3 9 -25 9 -49 0 -24 5 -47 10 -50 6 -4 8
-10 5 -15 -7 -11 41 -120 52 -120 5 0 17 -13 26 -30 17 -29 17 -30 0 -30 -29
0 -121 47 -189 95 -79 56 -123 108 -170 198 -50 98 -134 223 -189 285 l-46 51
28 15 c37 19 96 83 116 124 15 32 15 33 -1 27 -57 -25 -144 -37 -233 -33 -92
5 -100 7 -225 65 -71 34 -175 75 -232 93 l-103 33 41 21 c23 11 37 22 31 24
-6 2 -26 -6 -45 -18 -31 -18 -44 -20 -111 -14 -49 4 -95 3 -128 -5 -47 -11
-60 -10 -127 10 -53 16 -108 24 -187 27 l-112 3 -10 -38 c-6 -21 -11 -73 -11
-116 0 -65 5 -90 30 -149 24 -56 28 -73 18 -80 -10 -7 -10 -8 2 -7 26 4 49
-12 43 -28 -5 -13 -2 -13 20 2 18 12 36 15 55 11 15 -4 35 -7 45 -7 9 0 17 -5
17 -10 0 -6 4 -8 9 -4 5 3 15 0 23 -7 7 -7 19 -13 26 -13 6 0 12 -4 12 -8 0
-4 30 -28 67 -54 127 -86 139 -98 188 -197 57 -115 88 -254 83 -368 -2 -43 0
-78 4 -78 16 0 16 143 1 215 -26 126 -12 122 32 -9 15 -46 29 -114 33 -168 4
-50 12 -93 17 -95 14 -4 54 57 72 109 47 134 17 402 -62 558 -14 27 -23 50
-20 50 17 0 104 -64 98 -73 -4 -7 0 -8 11 -4 9 4 15 3 12 -2 -3 -5 19 -25 49
-45 30 -20 76 -57 103 -84 64 -63 307 -273 362 -313 52 -38 97 -58 168 -75 56
-13 87 -10 75 9 -4 6 -1 7 6 2 34 -21 -111 -108 -204 -122 l-50 -7 45 -7 c25
-4 68 -8 95 -9 l50 -2 -45 -14 c-61 -19 -191 -19 -273 0 -125 29 -224 98 -317
219 -29 37 -57 67 -62 67 -19 0 21 -55 151 -205 19 -21 32 -31 28 -21 -4 10
30 -17 77 -60 46 -44 82 -80 81 -82 -1 -1 -23 6 -49 17 -25 11 -46 16 -46 11
0 -6 -8 -10 -17 -9 -12 0 -14 2 -5 6 8 3 -13 23 -54 50 -37 24 -88 61 -113 81
-79 64 -80 65 -77 50 1 -7 5 -19 9 -26 10 -14 112 -85 182 -125 30 -17 40 -26
25 -23 -15 4 -10 -2 15 -14 22 -11 46 -17 53 -15 8 3 45 -4 82 -16 38 -11 99
-24 137 -28 l68 -7 -50 -32 c-61 -40 -113 -55 -188 -54 -55 1 -197 38 -197 51
0 4 6 13 13 21 6 7 -4 4 -24 -8 -91 -55 -233 -66 -341 -28 -38 13 -68 22 -68
20 0 -9 79 -43 115 -50 25 -4 57 -22 85 -47 46 -40 138 -92 147 -83 3 2 -17
16 -44 30 -26 14 -64 39 -83 55 l-34 29 49 7 c28 4 65 11 83 15 29 8 44 3 110
-33 l77 -43 3 -68 c4 -94 -19 -166 -70 -222 -22 -24 -36 -44 -30 -44 5 0 15 6
21 14 7 8 28 17 49 21 20 3 54 18 75 31 l39 25 -7 -23 c-35 -109 -113 -218
-242 -337 -111 -103 -124 -108 -230 -92 -167 24 -434 126 -448 171 -5 14 -12
19 -25 15 -26 -8 -156 14 -207 36 -28 12 -51 31 -64 54 -27 44 -37 39 -13 -7
33 -65 94 -146 136 -182 l43 -37 -45 22 c-112 55 -240 239 -240 345 l0 46 40
-36 c66 -59 314 -210 366 -221 24 -6 22 -3 -14 17 -24 13 -53 38 -64 56 l-20
32 29 0 c27 0 115 29 128 42 4 3 -10 6 -29 6 -58 0 -176 75 -154 98 4 3 22 10
40 14 l33 8 -36 1 c-27 1 -48 11 -82 41 l-46 41 20 33 c10 18 28 41 38 50 17
16 19 15 25 -14 3 -18 13 -48 23 -67 15 -33 17 -34 30 -17 15 21 17 38 3 29
-16 -10 -11 8 10 35 14 18 20 21 20 9 0 -22 32 -49 59 -49 32 0 53 63 26 82
-5 4 -2 10 8 14 22 8 53 -22 60 -57 3 -19 5 -17 6 9 0 18 -5 48 -13 67 -13 29
-12 34 0 39 32 12 0 25 -81 31 -119 10 -181 -20 -226 -107 -11 -22 -22 -38
-25 -36 -5 6 23 256 30 267 3 4 40 18 81 30 l77 23 51 -58 c29 -32 52 -61 52
-64 0 -7 80 -73 150 -124 68 -50 110 -91 113 -112 2 -10 13 -32 23 -49 l20
-30 -7 35 c-6 33 -6 34 12 20 14 -12 14 -8 -4 17 -23 33 -82 84 -167 145 -27
20 -62 49 -77 66 -14 16 -30 31 -35 33 -12 6 -103 112 -103 121 0 22 56 4 103
-34 50 -39 182 -108 208 -108 7 0 -1 15 -18 33 -16 17 -49 58 -73 90 -62 83
-64 70 -3 -25 27 -43 28 -47 11 -44 -70 15 -193 118 -260 220 -16 22 -28 36
-28 29 0 -7 22 -41 49 -77 48 -63 48 -64 24 -69 -22 -4 -28 4 -68 84 -65 128
-103 275 -111 432 -4 70 -9 125 -11 123 -3 -2 -3 -78 -2 -168 5 -306 -10 -508
-40 -542 -9 -11 -10 -16 -3 -12 11 7 12 -7 6 -75 -4 -46 -10 -95 -14 -109 -5
-21 -8 -17 -17 27 -5 29 -6 50 -1 47 11 -7 10 9 -1 38 -39 98 -51 163 -51 271
1 182 37 440 76 534 8 18 12 33 9 33 -13 0 -47 -90 -76 -200 -31 -124 -31
-125 -26 -320 4 -172 8 -210 35 -321 17 -69 37 -142 46 -162 15 -36 14 -37
-15 -67 -30 -29 -27 -35 14 -30 11 1 42 -24 78 -64 39 -43 80 -75 120 -95 l60
-30 -36 -7 c-64 -12 -145 3 -220 40 -82 41 -161 115 -151 142 6 15 12 13 44
-18 55 -52 89 -73 184 -112 121 -50 133 -45 17 8 -121 54 -203 110 -252 173
-17 21 -17 24 -1 55 9 18 18 35 20 37 3 3 25 -15 50 -40 l46 -44 -23 42 c-13
23 -28 39 -32 36 -15 -9 -23 15 -19 53 l4 37 39 -71 c38 -67 69 -106 69 -85 0
6 -8 21 -19 34 -46 60 -84 142 -83 180 1 22 -3 39 -8 39 -6 0 -10 -13 -10 -30
0 -104 -68 -259 -149 -341 -47 -46 -171 -129 -195 -129 -3 0 20 32 53 70 101
121 146 235 191 480 23 128 27 231 5 120 -41 -204 -96 -372 -131 -401 -11 -9
-14 -6 -14 14 0 14 4 37 10 51 17 47 -1 27 -25 -26 -13 -29 -34 -69 -47 -88
l-23 -35 30 19 c17 10 49 34 73 53 23 19 42 31 42 28 0 -14 -52 -111 -76 -142
-40 -52 -168 -91 -253 -76 l-43 8 93 75 c51 40 110 92 132 114 36 37 117 189
132 246 3 14 -12 -12 -34 -57 -22 -46 -44 -83 -48 -83 -5 0 -17 -16 -27 -35
-10 -19 -28 -42 -38 -52 -17 -15 -16 -9 7 42 15 33 34 80 42 104 12 32 18 40
25 30 7 -10 8 -5 3 14 -3 16 -2 34 3 40 5 7 13 39 16 72 20 171 104 474 153
549 14 21 26 45 27 52 1 8 17 35 36 62 19 26 33 51 32 55 -1 5 1 6 6 3 5 -3
26 7 48 22 21 14 62 34 89 43 l50 18 -62 0 c-58 1 -65 -2 -125 -46 -34 -26
-116 -100 -180 -164 -65 -64 -118 -115 -118 -112 0 9 56 113 93 173 61 98 135
186 194 232 49 37 57 40 96 34 23 -3 60 -8 82 -11 l40 -5 -45 15 c-40 12 -115
74 -115 93 0 3 -19 25 -42 47 -29 26 -43 48 -43 65 0 28 56 89 124 134 21 14
32 26 24 26 -8 0 -33 -13 -54 -28z m412 -8 c57 -15 103 -28 101 -30 -2 -3 -46
-13 -98 -25 -51 -11 -108 -27 -125 -35 -36 -17 -101 -95 -110 -131 -4 -13 -10
-23 -14 -23 -20 0 -30 142 -15 228 l7 42 74 0 c47 0 113 -10 180 -26z m393
-34 c83 -21 266 -92 362 -140 105 -53 243 -62 378 -24 23 7 23 7 6 -19 -21
-32 -69 -47 -150 -47 -56 0 -144 17 -190 36 -11 4 8 -18 43 -50 63 -59 129
-136 117 -136 -4 0 -48 40 -98 88 -88 85 -160 134 -292 199 -68 34 -194 78
-201 70 -3 -3 9 -8 26 -12 17 -4 30 -9 27 -11 -2 -2 -48 5 -103 16 -54 11
-123 20 -153 20 -60 0 -61 5 -4 26 46 17 123 12 232 -16z m-72 -45 c156 -30
340 -102 428 -169 217 -164 355 -345 458 -603 25 -61 25 -63 6 -63 -39 0 -166
67 -206 109 -22 22 -64 75 -94 118 -111 162 -317 364 -435 427 -35 18 -61 30
-58 25 7 -12 2 -11 -39 6 -43 18 -61 19 -52 4 5 -7 -8 -8 -41 -4 -57 9 -82 24
-62 36 10 7 10 9 -2 9 -8 0 -28 7 -44 15 -28 15 -46 13 -46 -5 0 -5 10 -14 21
-21 15 -8 19 -8 15 0 -4 6 -3 11 2 11 28 0 209 -223 261 -320 57 -107 100
-347 82 -458 -10 -64 -43 -158 -66 -188 -13 -17 -14 -12 -15 57 0 42 -9 111
-20 155 -61 238 -306 577 -475 655 -67 32 -67 32 -92 12 -14 -10 -33 -29 -41
-41 -15 -23 -15 -23 14 -17 23 5 26 4 14 -5 -12 -9 -10 -10 10 -3 14 4 48 7
75 6 35 -1 44 2 30 7 -11 5 -44 9 -74 9 -53 1 -54 1 -36 21 24 26 45 25 107
-6 39 -20 48 -28 37 -36 -12 -8 -12 -9 1 -6 16 5 23 0 78 -50 19 -17 33 -35
30 -38 -3 -3 -38 11 -78 31 -40 20 -78 34 -86 31 -8 -3 -14 -1 -14 5 0 6 -20
9 -48 8 -58 -3 -68 2 -87 48 -14 34 -14 38 11 81 14 24 42 61 60 82 34 37 53
45 189 73 48 11 209 6 282 -8z m667 -254 c21 -20 52 -49 68 -66 39 -40 164
-227 194 -290 14 -28 45 -75 71 -105 l46 -55 -62 60 c-35 33 -82 89 -106 125
-52 81 -170 227 -243 303 -59 60 -61 67 -10 41 16 -9 28 -11 24 -6 -3 5 -19
15 -36 22 -16 7 -30 17 -30 22 0 14 41 -11 84 -51z m41 29 c-3 -5 -13 -10 -21
-10 -8 0 -14 5 -14 10 0 6 9 10 21 10 11 0 17 -4 14 -10z m-947 -144 c20 -13
44 -32 52 -42 12 -14 -39 17 -99 63 -2 2 -1 3 3 3 3 0 23 -11 44 -24z m-580
-108 c-24 -20 -104 -166 -132 -240 -26 -67 -78 -273 -91 -358 -9 -57 -53 -242
-60 -248 -7 -8 -7 4 10 166 24 219 80 446 133 527 33 51 134 165 146 165 6 0
3 -6 -6 -12z m-149 -120 c-19 -24 -51 -65 -74 -93 -22 -27 -41 -52 -42 -54 -2
-2 -6 -1 -9 2 -4 4 1 18 10 31 18 28 136 156 143 156 3 0 -10 -19 -28 -42z
m-73 -189 c-19 -57 -39 -133 -44 -169 -9 -64 -9 -64 -21 -35 -23 55 -25 118
-6 156 29 55 97 160 101 156 3 -2 -11 -51 -30 -108z m1954 49 c35 -48 39 -70
9 -42 -19 17 -49 65 -49 79 0 13 12 2 40 -37z m-1653 -100 c-2 -13 -4 -5 -4
17 -1 22 1 32 4 23 2 -10 2 -28 0 -40z m236 -241 c17 -34 33 -65 35 -68 1 -3
-28 -14 -65 -24 -37 -10 -74 -23 -82 -29 -12 -9 -13 -7 -8 14 3 14 11 79 17
145 17 180 17 181 46 96 13 -39 39 -100 57 -134z m1443 166 c10 -21 19 -41 21
-45 2 -5 -1 -8 -6 -8 -6 0 -11 6 -11 14 0 22 -76 49 -98 35 -14 -9 -25 -8 -48
4 l-29 16 40 2 c22 1 54 5 70 9 17 4 33 8 37 9 4 0 15 -16 24 -36z m-2044
-163 c-1 -25 -5 -85 -10 -135 l-7 -90 -23 66 c-31 89 -37 156 -22 231 6 35 14
67 17 71 10 17 46 -99 45 -143z m2123 6 c24 -19 54 -38 66 -41 17 -6 19 -9 8
-16 -33 -21 -137 1 -132 28 1 6 -17 8 -48 5 -57 -5 -62 1 -18 24 18 9 28 11
24 4 -6 -9 -2 -9 13 -1 12 6 24 16 27 21 9 14 10 14 60 -24z m-502 -38 c12 -6
60 -21 107 -32 85 -21 85 -21 88 -55 l3 -34 -39 6 c-39 5 -92 36 -162 96 -36
32 -35 40 3 19z m565 -101 c38 -17 89 -33 119 -35 l53 -4 -27 -25 c-16 -14
-52 -36 -81 -50 -50 -24 -58 -25 -110 -14 -55 11 -138 47 -176 75 -15 12 -17
23 -11 63 6 45 9 51 48 69 l42 19 39 -34 c21 -18 68 -47 104 -64z m-248 41
c-1 -47 -27 -228 -33 -235 -4 -3 -5 31 -2 77 2 45 7 85 10 88 3 3 5 25 5 49 0
24 5 43 10 43 6 0 10 -10 10 -22z m-30 -8 c0 -11 -6 -20 -14 -20 -8 0 -17 -4
-20 -9 -4 -5 3 -7 14 -4 14 4 20 0 20 -11 0 -12 -9 -16 -35 -16 -30 0 -35 3
-35 24 0 13 -3 31 -6 40 -5 13 2 16 35 16 34 0 41 -3 41 -20z m-37 -156 c-28
-24 -28 -24 -5 -30 12 -3 22 -12 22 -19 0 -39 -23 -121 -40 -145 -15 -21 -24
-61 -35 -154 -15 -126 -57 -307 -95 -410 -12 -30 -43 -89 -70 -131 -27 -41
-47 -75 -44 -75 4 0 1 -7 -6 -15 -7 -8 -9 -15 -4 -15 23 0 141 -115 148 -145
3 -12 21 -39 41 -61 55 -60 48 -66 -41 -33 -32 12 -73 37 -91 55 -19 19 -38
34 -43 34 -5 0 -14 17 -19 38 -5 20 -14 53 -19 72 -7 27 -5 43 10 72 31 64 77
263 89 386 6 64 8 169 5 233 -4 74 -2 126 5 146 6 18 9 42 7 55 -3 18 -7 13
-17 -22 -7 -25 -15 -54 -17 -65 -10 -52 -55 -93 -137 -124 l-28 -11 19 27 c29
42 42 88 49 179 3 48 10 81 15 78 6 -4 8 -14 5 -24 -3 -12 9 -25 39 -43 53
-32 57 -21 9 22 -43 37 -35 41 12 5 18 -14 33 -21 33 -16 0 13 -25 28 -155 97
-130 68 -122 63 -101 71 21 8 125 -38 181 -81 l40 -30 -18 28 -17 27 45 0 c28
0 44 -4 40 -10 -3 -5 -12 -10 -20 -10 -27 0 -25 -19 4 -34 26 -14 30 -14 35 0
3 9 6 27 6 40 0 15 6 24 15 24 11 0 15 -13 17 -52 l2 -53 3 50 c2 28 9 55 15
60 7 7 9 -8 4 -52 -6 -62 -5 -63 20 -63 24 0 24 1 10 22 -18 26 -21 64 -6 73
8 5 8 11 0 20 -8 9 -6 14 6 19 9 3 20 4 25 0 5 -3 10 -53 10 -112 l2 -107 15
79 c11 60 12 84 3 98 -18 29 -13 55 17 83 l27 25 3 -26 c3 -20 -4 -33 -25 -50z
m229 -96 c22 -17 56 -37 76 -44 l37 -12 -37 -7 c-42 -8 -80 12 -136 74 -27 28
-31 31 -22 11 7 -14 22 -33 34 -42 20 -17 21 -18 1 -18 -18 -1 -17 -2 5 -16
24 -15 24 -15 -20 -9 l-44 6 24 -26 c23 -24 18 -31 -14 -19 -9 3 -14 10 -11
14 3 5 -13 23 -35 40 -22 17 -40 27 -40 22 0 -5 7 -15 15 -22 26 -21 16 -31
-14 -15 l-29 15 18 47 c10 27 21 74 25 105 l7 56 60 -64 c34 -35 78 -79 100
-96z m-14 87 c3 -3 -6 -5 -20 -5 -14 0 -31 7 -38 15 -10 12 -7 13 21 5 17 -5
34 -12 37 -15z m-1473 -41 c-22 -8 -44 -19 -49 -24 -16 -16 -30 -11 -16 5 12
15 61 33 90 33 8 1 -3 -6 -25 -14z m132 -8 c12 -11 -6 -18 -23 -8 -24 13 -114
-26 -114 -50 0 -24 -27 -23 -39 1 -13 23 -1 35 55 56 36 14 108 14 121 1z
m-41 -63 c9 -33 -8 -48 -35 -34 -23 13 -28 40 -10 58 16 16 38 5 45 -24z
m1189 -80 c1 -21 8 -58 14 -82 7 -23 10 -49 7 -56 -5 -14 51 -104 92 -148 l27
-28 -28 10 c-26 10 -113 64 -149 94 -28 22 -25 146 5 207 12 26 23 46 25 45 2
-2 5 -20 7 -42z m-1627 -120 l3 -77 -21 19 c-11 10 -30 34 -42 52 l-20 34 23
25 c41 44 54 33 57 -53z m272 22 c0 -21 -5 -19 -25 11 -16 25 -16 25 4 14 12
-6 21 -17 21 -25z m1120 -56 c0 -54 -3 -64 -30 -91 -17 -17 -33 -28 -37 -25
-4 5 58 176 65 177 1 0 2 -27 2 -61z m-1454 4 c16 -27 39 -75 52 -108 12 -32
28 -63 35 -67 23 -14 2 -16 -30 -3 -22 9 -40 29 -57 64 -41 80 -57 133 -44
148 6 7 12 13 13 13 2 0 16 -21 31 -47z m-55 -30 c24 -74 67 -149 93 -161 l26
-12 -22 -45 c-22 -44 -37 -57 -39 -32 -1 23 -9 61 -14 66 -3 2 -6 -25 -6 -60
l-2 -64 -8 75 c-4 42 -21 117 -37 168 -16 50 -27 94 -24 97 12 12 21 3 33 -32z
m1700 -50 c8 -9 39 -32 69 -52 50 -33 53 -36 29 -39 -14 -2 -48 5 -75 15 -46
17 -49 21 -52 56 -3 40 7 47 29 20z m-1567 -12 c17 -19 17 -19 -3 -14 -12 3
-21 12 -21 19 0 18 4 18 24 -5z m281 -21 c27 -29 15 -32 -18 -4 -16 14 -22 24
-14 24 8 0 22 -9 32 -20z m1091 -27 c-3 -21 -6 -47 -6 -59 0 -17 -5 -20 -31
-16 -29 4 -31 7 -26 39 5 31 39 72 61 73 5 0 6 -17 2 -37z m-78 -58 c1 -55 -2
-69 -21 -87 -12 -12 -27 -36 -34 -53 l-11 -30 -1 41 c-1 23 -4 55 -7 71 -5 24
1 36 30 68 20 22 36 43 36 48 0 4 2 7 4 7 1 0 4 -29 4 -65z m-1244 6 c-6 -6
-24 19 -24 34 1 6 7 1 15 -9 8 -11 12 -22 9 -25z m260 -51 c51 0 54 -2 80 -40
14 -22 23 -40 19 -40 -5 1 -46 9 -93 19 -75 15 -90 22 -123 56 -20 21 -37 39
-37 41 0 1 23 -6 50 -17 28 -10 74 -19 104 -19z m1057 -45 c-5 -19 -6 -19 -9
2 -3 19 -6 21 -22 11 -26 -17 -36 -3 -21 29 l12 26 23 -24 c15 -15 21 -31 17
-44z m-146 -122 c6 -40 6 -41 -37 -64 -51 -29 -56 -52 -38 -165 9 -60 9 -78
-4 -108 -18 -42 -22 -43 -66 -13 -30 20 -36 32 -58 117 -13 52 -28 100 -34
107 -7 9 -38 13 -89 13 -100 0 -177 16 -183 38 -2 9 -7 33 -10 53 l-6 37 39
-14 c21 -7 78 -19 125 -26 80 -11 90 -11 121 6 50 27 159 119 192 162 l28 38
6 -70 c4 -39 10 -89 14 -111z m-784 111 c9 -8 66 -33 126 -54 107 -37 108 -38
119 -78 11 -34 10 -41 -6 -55 -18 -15 -19 -13 -25 31 -9 64 -13 74 -14 32 -1
-47 -49 -145 -98 -199 l-39 -44 4 69 c2 38 -1 80 -7 94 -8 22 -10 22 -11 5 -1
-27 -26 -59 -39 -50 -6 3 -11 34 -11 68 -1 34 -7 79 -14 100 -12 33 -12 39 0
44 13 5 13 9 -1 29 -18 27 -10 31 16 8z m889 -19 c8 -20 4 -34 -22 -75 -17
-27 -34 -50 -38 -50 -4 0 -10 -9 -13 -19 -2 -11 -23 -31 -46 -45 -46 -30 -47
-31 -29 -150 10 -76 10 -84 -11 -123 -26 -52 -42 -54 -107 -10 -45 29 -50 37
-62 92 -33 145 -27 135 -80 135 -72 1 -180 18 -213 35 -43 23 -26 36 18 14 26
-12 72 -21 141 -25 119 -8 112 -3 142 -121 15 -60 26 -84 50 -105 80 -72 127
-8 103 141 -15 91 -11 117 16 126 10 3 31 18 47 33 24 23 29 36 31 81 3 79 51
123 73 66z m20 -81 c-7 -41 -16 -74 -20 -74 -3 0 -14 6 -23 13 -15 11 -14 16
14 57 24 36 30 52 25 80 -4 28 -3 31 6 16 7 -13 7 -39 -2 -92z m846 -46 c-54
-51 -107 -97 -117 -102 -11 -5 -35 -4 -64 4 l-45 13 107 53 c60 30 128 69 153
88 80 61 66 38 -34 -56z m-878 -81 c-5 -18 -12 -40 -15 -49 -10 -32 -23 -8
-23 42 0 49 13 66 37 48 8 -6 8 -18 1 -41z m-639 -70 c1 -10 -28 -45 -64 -78
-54 -51 -63 -64 -55 -79 12 -23 13 -60 2 -60 -5 0 -14 11 -20 25 -14 30 -60
51 -76 35 -7 -7 -3 -10 14 -10 30 0 60 -27 60 -54 -1 -12 -16 -49 -33 -84
l-33 -63 -34 36 c-19 19 -40 35 -48 35 -9 0 -2 21 21 68 19 37 37 75 41 85 3
11 16 17 37 17 18 0 29 3 26 6 -4 4 5 20 18 36 14 16 23 33 21 37 -3 4 11 26
29 50 19 23 39 59 46 79 l12 37 18 -50 c10 -27 18 -58 18 -68z m572 62 c-12
-10 -26 -19 -33 -21 -8 -3 -8 -25 2 -87 11 -71 14 -79 24 -60 18 35 28 27 33
-24 3 -40 10 -54 38 -79 19 -16 35 -36 35 -44 0 -8 7 -14 17 -14 9 0 13 -3 10
-7 -4 -3 5 -15 20 -25 l28 -18 -25 -1 c-14 -1 -35 0 -46 0 -13 1 -31 -10 -46
-27 l-25 -30 -62 31 -62 30 -43 -42 -43 -43 -22 30 -21 30 -170 -6 c-124 -3
-170 -2 -170 7 0 7 -23 11 -65 11 -45 0 -67 4 -71 13 -9 23 14 66 60 113 42
43 46 44 87 38 29 -5 40 -4 35 4 -9 15 -74 35 -91 28 -8 -3 -15 -1 -15 3 0 5
14 14 30 20 28 9 30 13 30 65 0 31 3 56 8 56 4 0 15 -36 25 -80 10 -44 22 -80
28 -80 13 0 11 20 -6 86 -10 41 -12 60 -4 65 6 3 2 8 -10 12 -36 9 -25 30 12
23 17 -4 72 -9 120 -13 83 -5 89 -7 98 -31 5 -13 7 -34 3 -45 -4 -13 -2 -17 5
-13 6 4 11 0 11 -11 0 -72 47 -131 127 -158 45 -16 54 -10 82 50 20 42 20 47
5 136 -8 51 -11 96 -7 100 4 4 24 18 43 31 29 20 36 21 39 9 2 -8 -6 -23 -18
-32z m19 -68 c0 -31 -5 -53 -15 -61 -20 -17 -21 -15 -28 47 -5 43 -3 54 11 62
25 14 32 4 32 -48z m-594 -64 c-3 -15 -16 -27 -31 -31 -14 -4 -25 -13 -25 -21
0 -8 -7 -15 -17 -15 -9 0 -14 2 -12 5 2 2 22 24 44 48 22 25 42 43 44 41 2 -2
1 -14 -3 -27z m-203 -43 c-20 -8 -35 -24 -39 -39 -7 -29 -44 -42 -76 -28 -18
8 -14 13 38 46 33 20 70 36 84 36 23 -1 23 -2 -7 -15z m-110 -29 c-48 -32 -58
-35 -122 -34 -54 1 -78 -3 -103 -19 -18 -11 -52 -23 -76 -27 -31 -5 -49 -15
-65 -37 -12 -16 -36 -38 -54 -49 -18 -12 -31 -25 -27 -30 3 -5 1 -9 -5 -9 -6
0 -8 -6 -5 -14 3 -8 1 -17 -5 -21 -7 -3 -11 3 -12 17 -1 58 -17 195 -24 211
-7 16 6 17 198 15 113 -2 200 -7 193 -11 -17 -11 42 3 94 23 67 27 70 24 13
-15z m-512 -16 c18 -34 30 -201 16 -218 -9 -12 -9 -13 1 -7 18 11 15 -27 -5
-69 -19 -37 -27 -41 -109 -49 l-51 -5 -6 122 c-3 67 -12 144 -21 172 -8 27
-13 51 -10 54 2 3 37 8 77 11 39 4 77 8 84 9 7 0 17 -8 24 -20z m789 2 c0 -5
-13 -14 -29 -19 -23 -8 -31 -7 -35 3 -3 8 0 16 7 19 21 8 57 6 57 -3z m-987
-61 c4 -30 3 -38 -3 -25 -8 19 -14 83 -6 74 2 -2 6 -24 9 -49z m665 24 c39 -4
63 -12 66 -21 7 -18 -16 -68 -47 -105 l-23 -26 -49 61 c-27 34 -51 70 -52 79
-3 20 9 22 105 12z m-118 -39 c11 -13 2 -15 -71 -14 l-84 1 55 13 c75 17 86
17 100 0z m59 -62 c28 -34 31 -43 25 -83 -4 -25 -8 -47 -10 -49 -2 -2 -35 29
-73 70 -39 40 -67 77 -63 81 4 3 23 8 42 11 19 2 38 5 42 5 3 1 20 -15 37 -35z
m-170 -12 c35 -18 171 -154 171 -171 0 -4 -66 -12 -147 -19 -204 -16 -253 -17
-253 -8 0 35 100 181 139 202 35 19 45 18 90 -4z m-418 -53 c-8 -22 -8 -34 -1
-36 5 -2 10 -26 10 -53 l0 -49 -35 0 c-33 0 -46 12 -25 25 5 3 6 13 3 22 -4
11 -2 14 5 9 6 -3 16 2 21 13 16 29 13 38 -4 15 -9 -11 -6 4 8 38 23 60 38 73
18 16z m1869 21 c21 -12 41 -30 43 -40 5 -19 6 -19 -130 -34 -34 -4 -59 -1
-73 7 -17 11 -22 10 -35 -10 -24 -34 -37 -27 -29 16 9 54 17 57 71 35 64 -27
115 -36 144 -24 20 8 17 10 -25 10 -27 1 -67 6 -89 13 l-40 12 59 17 c33 9 61
17 63 18 2 0 20 -9 41 -20z m-252 -92 c26 -24 26 -30 2 -82 -19 -40 -19 -40
-13 -7 5 29 1 39 -33 73 -21 21 -44 39 -51 39 -7 0 -13 -1 -13 -2 0 -2 -7 -25
-15 -51 -13 -45 -13 -49 6 -68 41 -41 12 -27 -38 19 l-52 47 41 62 41 63 51
-37 c28 -20 61 -45 74 -56z m-567 24 c26 -20 48 -39 48 -42 1 -3 -26 -10 -60
-15 l-60 -10 -75 50 c-41 28 -74 55 -74 60 0 4 38 5 86 1 79 -6 91 -10 135
-44z m219 28 c0 -8 -125 -49 -150 -49 -19 0 -90 39 -90 50 0 3 54 5 120 5 66
0 120 -3 120 -6z m-552 -97 c-8 -43 -48 0 -48 51 1 21 2 21 26 -7 14 -15 24
-35 22 -44z m163 28 c5 0 21 -7 34 -16 l25 -16 -23 -29 c-12 -15 -25 -28 -29
-28 -7 -1 -38 86 -38 108 1 13 2 13 11 -1 5 -10 14 -18 20 -18z m1013 7 c17
-14 27 -30 25 -41 -3 -14 -11 -9 -44 23 -42 44 -30 57 19 18z m-305 -101 l-12
-47 -38 37 c-48 47 -51 68 -8 59 l31 -7 -16 31 c-24 46 -19 49 20 10 35 -35
35 -36 23 -83z m-255 88 c9 -3 16 -9 16 -13 0 -10 -90 -34 -98 -26 -4 4 -1 10
6 12 6 3 12 11 12 19 0 14 35 19 64 8z m-383 -61 c-39 -52 -48 -63 -55 -63
-15 0 -3 27 26 57 39 40 57 44 29 6z"/>
<path d="M1127 2790 c-54 -21 -117 -65 -117 -82 0 -7 12 0 28 15 37 35 115 69
182 77 l55 7 -50 1 c-27 1 -72 -7 -98 -18z"/>
<path d="M1781 2785 c2 -2 40 -27 84 -55 56 -37 128 -101 242 -219 90 -91 163
-163 163 -159 0 22 -205 249 -295 326 -53 46 -145 101 -178 108 -11 2 -18 2
-16 -1z"/>
<path d="M2140 1725 c14 -8 30 -14 35 -14 6 0 -1 6 -15 14 -14 8 -29 14 -35
14 -5 0 1 -6 15 -14z"/>
<path d="M2460 1730 c-8 -5 -25 -10 -37 -10 -12 0 -24 -3 -26 -7 -6 -9 76 -8
99 1 17 6 10 26 -9 26 -7 0 -19 -5 -27 -10z"/>
<path d="M2474 1665 c24 -18 106 -35 164 -34 l47 1 -50 8 c-28 4 -76 15 -107
24 -68 19 -79 20 -54 1z"/>
<path d="M2175 1328 c-4 -40 -11 -95 -16 -123 -20 -107 -49 -308 -45 -312 7
-7 24 59 36 142 6 44 15 99 20 121 11 49 25 244 17 244 -3 0 -8 -33 -12 -72z"/>
<path d="M2391 1435 c15 -15 34 -25 43 -23 10 2 1 11 -27 27 l-42 23 26 -27z"/>
<path d="M2281 1312 c-1 -14 37 -92 44 -92 3 0 -3 17 -13 38 -11 20 -22 44
-25 52 -4 10 -6 11 -6 2z"/>
<path d="M1020 935 c14 -8 30 -14 35 -14 6 0 -1 6 -15 14 -14 8 -29 14 -35 14
-5 0 1 -6 15 -14z"/>
<path d="M1836 837 c-49 -86 -97 -177 -93 -177 11 0 122 198 115 205 -2 2 -12
-11 -22 -28z"/>
<path d="M1188 765 c-3 -14 -1 -25 3 -25 5 0 9 11 9 25 0 14 -2 25 -4 25 -2 0
-6 -11 -8 -25z"/>
<path d="M1300 600 c-25 -22 -40 -39 -35 -39 6 0 30 17 55 39 25 22 41 39 35
39 -5 0 -30 -17 -55 -39z"/>
<path d="M1592 583 c19 -3 29 -12 32 -26 22 -108 31 -133 55 -155 43 -40 181
-102 181 -82 0 6 -7 10 -16 10 -27 0 -138 57 -164 85 -18 19 -25 37 -25 70 0
23 -3 41 -6 39 -4 -2 -10 12 -13 31 -6 32 -10 35 -39 34 -30 -2 -30 -2 -5 -6z"/>
<path d="M1926 427 c-3 -13 -17 -41 -31 -61 -14 -21 -24 -40 -21 -43 6 -6 66
98 66 115 0 20 -7 14 -14 -11z"/>
<path d="M1601 374 c9 -11 8 -14 -7 -15 -11 0 -1 -7 21 -15 65 -24 81 -12 24
18 -27 14 -45 20 -38 12z"/>
<path d="M605 410 c11 -5 45 -8 75 -8 42 0 49 2 30 8 -35 11 -131 11 -105 0z"/>
<path d="M470 172 c0 -5 -10 -14 -22 -20 -14 -6 -17 -11 -8 -11 8 0 26 8 40
19 20 16 22 20 8 20 -10 0 -18 -4 -18 -8z"/>
<path d="M920 387 c0 -2 15 -14 33 -27 17 -12 26 -17 20 -9 -21 22 -15 27 33
27 25 0 48 3 52 6 3 3 -27 6 -66 6 -40 0 -72 -1 -72 -3z"/>
<path d="M1725 2993 c114 -7 885 -7 885 0 0 4 -210 6 -467 5 -258 -1 -445 -3
-418 -5z"/>
<path d="M2668 2993 c12 -2 30 -2 40 0 9 3 -1 5 -23 4 -22 0 -30 -2 -17 -4z"/>
<path d="M2788 2993 c28 -2 76 -2 105 0 28 2 5 3 -53 3 -58 0 -81 -1 -52 -3z"/>
<path d="M2609 2919 c-23 -19 -23 -20 -2 -10 12 6 25 16 28 21 10 16 -1 12
-26 -11z"/>
<path d="M765 2897 c-17 -17 -37 -41 -45 -52 -14 -18 -14 -18 6 -5 27 20 88
90 78 90 -5 0 -23 -15 -39 -33z"/>
<path d="M2737 2893 c-3 -10 -9 -49 -13 -88 -3 -38 -13 -85 -20 -104 -19 -46
-17 -63 3 -26 9 16 22 75 29 129 12 95 12 130 1 89z"/>
<path d="M2475 2845 c-16 -7 -23 -14 -14 -14 8 -1 24 6 35 14 24 18 18 18 -21
0z"/>
<path d="M2655 2823 c-18 -14 -18 -15 -2 -9 10 3 23 6 28 6 5 0 9 5 9 10 0 14
-12 12 -35 -7z"/>
<path d="M2676 2768 c-3 -13 -5 -39 -5 -58 1 -27 3 -22 9 20 9 58 7 77 -4 38z"/>
<path d="M627 2719 c12 -13 24 -37 27 -53 6 -31 13 -42 22 -33 9 9 -40 100
-56 105 -9 3 -7 -4 7 -19z"/>
<path d="M2975 2720 c10 -11 20 -18 23 -15 7 6 -18 35 -31 35 -5 0 -2 -9 8
-20z"/>
<path d="M2 2640 c0 -19 2 -27 5 -17 2 9 2 25 0 35 -3 9 -5 1 -5 -18z"/>
<path d="M701 2537 c-83 -85 -116 -125 -109 -132 4 -5 161 162 186 197 25 35
5 18 -77 -65z"/>
<path d="M2567 2564 c-4 -4 -7 -26 -6 -48 l1 -41 9 39 c10 42 8 62 -4 50z"/>
<path d="M1015 2525 c-3 -8 -7 -21 -9 -29 -3 -9 4 -13 20 -13 19 0 22 2 14 12
-7 9 -8 15 -1 20 6 3 27 -11 48 -30 21 -20 31 -34 23 -30 -8 4 3 -8 25 -26
123 -103 186 -198 265 -399 18 -47 37 -90 42 -97 6 -7 6 -18 2 -24 -4 -7 -3
-9 3 -6 10 6 116 -196 116 -221 0 -19 90 -58 153 -67 l49 -7 -25 18 c-75 53
-199 157 -206 172 -4 9 -8 24 -9 33 -1 9 -14 32 -28 51 -15 19 -47 79 -72 134
-26 54 -58 124 -72 154 -60 128 -179 278 -269 341 -48 33 -63 36 -69 14z m665
-879 l25 -18 -25 7 c-55 16 -69 25 -93 57 -44 60 -41 64 14 17 30 -25 65 -53
79 -63z"/>
<path d="M2610 2480 c-13 -28 -30 -55 -38 -59 -8 -4 -12 -17 -10 -27 3 -14 14
0 42 48 21 38 36 73 34 79 -2 6 -15 -12 -28 -41z"/>
<path d="M2720 2516 c0 -19 161 -91 237 -105 68 -13 50 4 -24 23 -37 9 -96 31
-132 49 -82 40 -81 40 -81 33z"/>
<path d="M2950 2506 c0 -2 11 -6 25 -8 14 -3 25 -1 25 3 0 5 -11 9 -25 9 -14
0 -25 -2 -25 -4z"/>
<path d="M260 2496 c0 -13 29 -62 43 -75 30 -25 24 5 -9 43 -19 22 -34 36 -34
32z"/>
<path d="M365 2370 c3 -5 16 -10 28 -10 18 0 19 2 7 10 -20 13 -43 13 -35 0z"/>
<path d="M2553 2315 c0 -27 2 -38 4 -22 2 15 2 37 0 50 -2 12 -4 0 -4 -28z"/>
<path d="M3 2300 c0 -30 2 -43 4 -27 2 15 2 39 0 55 -2 15 -4 2 -4 -28z"/>
<path d="M136 2311 c20 -34 143 -140 195 -166 48 -25 33 -8 -26 30 -31 19 -86
66 -122 103 -50 50 -62 59 -47 33z"/>
<path d="M1850 2237 c0 -6 173 -136 246 -186 62 -41 152 -86 160 -79 2 3 -38
28 -90 57 -51 29 -135 84 -187 122 -98 72 -129 92 -129 86z"/>
<path d="M3 2175 c0 -22 2 -30 4 -17 2 12 2 30 0 40 -3 9 -5 -1 -4 -23z"/>
<path d="M2499 2133 c26 -38 49 -56 33 -27 -6 11 -20 28 -33 39 l-23 20 23
-32z"/>
<path d="M1110 2079 c7 -11 14 -19 16 -16 7 7 -7 37 -17 37 -6 0 -5 -9 1 -21z"/>
<path d="M1170 2065 c0 -19 122 -178 182 -236 67 -66 194 -157 204 -147 3 3
-12 16 -33 29 -67 41 -242 211 -307 298 -25 35 -46 60 -46 56z"/>
<path d="M175 2043 c28 -8 58 -19 67 -24 10 -5 19 -5 23 1 3 5 -7 12 -22 16
-15 3 -44 10 -63 15 -56 14 -60 9 -5 -8z"/>
<path d="M2090 2021 c0 -5 14 -22 30 -38 47 -44 41 -58 -25 -53 -16 1 -28 -1
-25 -4 7 -7 192 -37 197 -32 2 2 -11 12 -29 23 -18 11 -59 41 -90 66 -32 26
-58 43 -58 38z"/>
<path d="M1896 1936 c41 -29 303 -112 280 -89 -11 11 -150 63 -168 63 -9 0
-20 5 -23 10 -4 6 -11 8 -16 4 -5 -3 -15 -1 -22 4 -7 5 -25 12 -42 16 -29 7
-29 7 -9 -8z"/>
<path d="M1 1847 c1 -18 3 -24 6 -14 3 11 11 16 19 13 19 -7 18 -4 -6 17 -19
16 -20 16 -19 -16z"/>
<path d="M1451 1860 c0 -8 4 -24 9 -35 5 -13 9 -14 9 -5 0 8 -4 24 -9 35 -5
13 -9 14 -9 5z"/>
<path d="M1596 1854 c-17 -17 -21 -34 -8 -34 5 0 14 11 20 25 13 29 10 31 -12
9z"/>
<path d="M2690 1849 c34 -10 260 -11 260 -1 0 4 -64 7 -143 8 -78 0 -131 -3
-117 -7z"/>
<path d="M50 1834 c0 -2 14 -11 31 -20 62 -32 209 -64 209 -46 0 5 -21 13 -47
17 -27 4 -81 17 -120 30 -40 13 -73 21 -73 19z"/>
<path d="M2163 1818 c7 -5 26 -5 42 -2 23 4 26 3 15 -5 -12 -9 -10 -11 13 -11
15 0 27 4 27 9 0 5 8 12 18 14 9 3 -15 4 -55 4 -39 -1 -66 -5 -60 -9z"/>
<path d="M1315 1765 c35 -32 165 -119 170 -113 2 1 -19 28 -46 58 -28 30 -42
42 -33 26 l18 -28 -41 21 c-23 11 -44 25 -48 31 -3 5 -16 15 -28 21 -16 8 -14
4 8 -16z"/>
<path d="M1705 1764 c29 -23 112 -64 170 -84 27 -10 59 -21 70 -26 11 -4 0 10
-25 30 -25 21 -47 42 -49 48 -1 5 -9 2 -15 -8 -11 -15 -19 -13 -92 20 -43 20
-70 29 -59 20z"/>
<path d="M733 1715 c0 -33 2 -45 4 -27 2 18 2 45 0 60 -2 15 -4 0 -4 -33z"/>
<path d="M70 1733 c1 -25 90 -98 90 -73 0 6 -6 10 -14 10 -8 0 -28 16 -45 35
-17 20 -31 32 -31 28z"/>
<path d="M1718 1689 c28 -29 52 -56 52 -60 0 -5 11 -9 25 -9 22 0 17 8 -44 60
-86 74 -104 78 -33 9z"/>
<path d="M0 1685 c0 -37 213 -166 295 -179 28 -4 34 -3 20 4 -14 6 -15 9 -5
10 8 0 2 8 -15 17 -16 9 -34 21 -40 27 -6 6 -28 22 -48 36 -34 23 -47 40 -29
40 4 -1 34 -7 67 -15 33 -8 69 -15 80 -15 44 0 -11 27 -78 39 -57 10 -70 9
-82 -3 -13 -13 -10 -19 27 -49 24 -19 59 -44 78 -56 41 -25 30 -27 -30 -6 -58
20 -146 75 -197 123 -24 21 -43 34 -43 27z"/>
<path d="M1250 1601 c47 -45 115 -99 152 -121 73 -45 86 -66 99 -158 l8 -57
-4 60 c-2 33 -6 69 -10 81 -6 21 -6 21 57 8 68 -15 148 -16 188 -5 16 5 -15
10 -85 13 -109 6 -200 26 -193 41 2 4 -25 23 -59 41 -35 19 -102 66 -150 106
l-88 72 85 -81z"/>
<path d="M1098 1583 c12 -2 30 -2 40 0 9 3 -1 5 -23 4 -22 0 -30 -2 -17 -4z"/>
<path d="M2 1550 c0 -19 2 -27 5 -17 2 9 2 25 0 35 -3 9 -5 1 -5 -18z"/>
<path d="M675 1530 c-15 -30 -19 -32 -25 -16 -6 18 -29 -25 -88 -159 l-13 -30
25 30 c48 57 128 184 124 197 -3 7 -13 -2 -23 -22z"/>
<path d="M2690 1424 c36 -27 310 -115 310 -100 0 10 -98 45 -320 114 -8 2 -4
-4 10 -14z"/>
<path d="M1703 1383 c9 -2 25 -2 35 0 9 3 1 5 -18 5 -19 0 -27 -2 -17 -5z"/>
<path d="M1160 1334 c-59 -36 -79 -41 -98 -22 -6 6 -15 9 -18 5 -10 -9 16 -37
34 -37 16 0 152 77 152 85 0 10 -17 2 -70 -31z"/>
<path d="M1925 1150 c-23 -26 -4 -26 26 0 18 15 20 19 8 20 -9 0 -24 -9 -34
-20z"/>
<path d="M1096 1085 c-25 -19 -5 -19 44 0 l35 13 -30 1 c-16 0 -39 -6 -49 -14z"/>
<path d="M1556 1077 c-33 -12 -61 -28 -64 -34 -2 -8 18 -3 50 12 29 14 62 25
73 26 11 0 29 4 40 9 46 20 -42 8 -99 -13z"/>
<path d="M860 1065 c23 -25 88 -61 95 -53 2 2 -24 21 -58 42 -55 34 -59 35
-37 11z"/>
<path d="M3 950 c0 -25 2 -35 4 -22 2 12 2 32 0 45 -2 12 -4 2 -4 -23z"/>
<path d="M482 921 c-59 -21 -83 -38 -37 -27 34 9 115 44 100 44 -5 1 -34 -8
-63 -17z"/>
<path d="M136 887 c-42 -55 -64 -196 -40 -257 l16 -39 29 33 c34 39 37 51 10
36 -34 -17 -44 -12 -39 20 3 23 1 30 -9 26 -24 -9 -14 9 43 79 38 47 44 57 18
30 l-39 -39 -3 32 c-2 20 4 43 16 60 42 61 40 75 -2 19z"/>
<path d="M0 860 c0 -12 57 -12 85 0 15 6 6 9 -32 9 -29 1 -53 -3 -53 -9z"/>
<path d="M722 850 c20 -11 40 -24 43 -30 3 -5 11 -10 17 -10 6 0 -6 14 -27 30
-21 17 -45 30 -54 30 -9 -1 1 -10 21 -20z"/>
<path d="M420 788 c-1 -16 -4 -32 -5 -38 -1 -5 -3 -17 -4 -25 -1 -18 -27 -20
-34 -2 -10 24 -6 -9 7 -58 l13 -50 7 35 c4 19 11 53 17 76 6 23 9 52 6 65 -4
23 -4 23 -7 -3z"/>
<path d="M716 760 c20 -43 24 -47 24 -29 0 8 -10 25 -21 39 l-20 25 17 -35z"/>
<path d="M2320 750 c0 -6 6 -10 13 -10 18 0 61 -46 53 -58 -3 -5 -27 -10 -53
-10 -91 -2 -243 -47 -243 -72 0 -14 4 -13 42 10 44 26 205 53 287 48 36 -3
102 -14 146 -27 44 -12 88 -23 97 -24 30 -5 30 -14 -4 -43 -43 -38 -122 -142
-148 -195 -23 -50 -23 -49 -10 -49 6 0 15 12 21 27 15 39 92 144 149 203 50
51 50 51 97 44 85 -12 41 3 -84 30 -67 14 -152 39 -190 57 -152 70 -173 78
-173 69z"/>
<path d="M157 614 c-34 -38 -36 -44 -26 -70 l11 -29 43 50 c24 27 42 52 39 54
-2 3 -10 -1 -16 -7 -7 -7 -19 -12 -27 -12 -11 0 -11 4 3 19 10 11 16 23 15 28
-2 4 -21 -11 -42 -33z"/>
<path d="M361 602 c-14 -27 -29 -28 -48 -4 -12 15 -13 14 -7 -13 12 -53 17
-55 53 -25 26 22 31 32 23 46 -9 16 -10 16 -21 -4z"/>
<path d="M272 578 c5 -45 -8 -51 -17 -8 -6 29 -25 42 -25 18 0 -20 33 -108 40
-108 4 0 14 8 23 18 15 16 15 22 1 62 -20 58 -27 64 -22 18z"/>
<path d="M2755 540 c-68 -48 -149 -126 -210 -203 l-30 -38 -83 26 c-46 15
-117 41 -158 60 -41 19 -74 32 -74 30 0 -11 144 -76 223 -100 48 -15 84 -31
82 -36 -3 -4 -17 -4 -31 1 -17 7 -23 7 -19 0 3 -6 13 -10 21 -10 8 0 14 -7 14
-16 0 -11 -5 -14 -17 -9 -39 16 -50 16 -56 0 -5 -11 1 -19 18 -25 29 -11 29
-8 11 -51 -22 -54 -28 -79 -19 -79 4 0 19 30 32 68 41 116 121 214 237 291 75
51 207 101 264 101 51 0 41 17 -13 24 -28 3 -68 8 -87 11 -30 3 -46 -3 -105
-45z"/>
<path d="M176 531 l-28 -29 18 -48 18 -47 12 74 c7 40 12 75 10 76 -1 2 -15
-10 -30 -26z"/>
<path d="M211 479 c-6 -34 -9 -64 -8 -66 2 -1 15 10 29 25 25 27 25 27 8 65
l-18 39 -11 -63z"/>
<path d="M2910 456 c-104 -32 -123 -40 -200 -90 -86 -56 -155 -149 -182 -244
-22 -82 -22 -79 3 -85 15 -4 20 -11 16 -21 -10 -25 74 -22 90 3 10 15 20 18
55 15 l43 -5 -35 20 c-46 26 -55 26 -68 -3 -12 -28 -49 -43 -65 -27 -14 14
-13 139 2 154 8 8 16 6 30 -7 10 -9 29 -18 42 -19 13 0 30 -9 37 -19 17 -24
32 -23 32 2 0 17 3 19 19 10 11 -5 28 -7 38 -3 15 5 16 3 6 -8 -7 -7 -13 -16
-13 -21 0 -7 71 -30 77 -24 2 1 0 17 -3 35 -5 25 -10 30 -26 25 -10 -3 -25 -1
-32 6 -8 6 -18 10 -22 9 -5 -1 -19 -1 -31 0 -20 1 -20 4 -10 36 12 41 12 41
-33 49 -30 5 -32 4 -13 -5 18 -10 38 -57 28 -68 -7 -6 -105 21 -111 30 -3 5 4
22 15 37 18 26 24 28 78 26 53 -2 54 -2 13 4 -25 4 -45 12 -44 17 0 6 31 31
68 57 73 50 173 93 244 104 26 4 42 12 42 20 0 18 0 18 -90 -10z"/>
<path d="M2742 458 c-6 -6 -12 -19 -12 -27 0 -13 2 -13 16 1 9 9 15 21 13 27
-3 9 -8 8 -17 -1z"/>
<path d="M2922 423 c-13 -5 -42 -55 -42 -73 0 -5 9 -19 20 -30 21 -21 84 -28
95 -10 4 6 -5 7 -23 4 -42 -8 -72 10 -72 45 0 38 31 65 69 59 17 -2 28 -1 25
4 -6 9 -51 10 -72 1z"/>
<path d="M2969 276 c-2 -3 -53 -6 -112 -7 -60 -2 -111 -8 -114 -13 -8 -13 237
0 251 14 7 7 5 10 -5 10 -9 0 -18 -2 -20 -4z"/>
<path d="M2770 203 c0 -14 3 -23 7 -20 3 4 12 2 19 -4 11 -9 12 -6 3 20 -13
38 -29 40 -29 4z"/>
<path d="M2824 214 c3 -9 6 -20 6 -25 0 -5 9 -9 20 -9 11 0 20 5 20 10 0 6 -7
10 -15 10 -8 0 -15 7 -15 15 0 8 -5 15 -11 15 -6 0 -8 -7 -5 -16z"/>
<path d="M2376 189 c-24 -41 -34 -160 -15 -176 11 -9 14 -6 13 15 0 15 -4 35
-8 44 -7 16 8 81 24 103 12 18 20 45 12 45 -4 0 -16 -14 -26 -31z"/>
<path d="M2989 213 c-5 -30 -4 -65 3 -69 4 -3 8 13 8 35 0 23 -2 41 -5 41 -3
0 -6 -3 -6 -7z"/>
<path d="M1115 200 c-4 -7 3 -8 22 -4 38 9 42 14 10 14 -14 0 -29 -5 -32 -10z"/>
<path d="M0 177 c0 -15 27 -43 34 -36 3 2 -4 15 -15 28 -13 16 -19 18 -19 8z"/>
<path d="M2926 144 c-9 -8 -19 -27 -22 -40 -9 -35 -29 -24 -28 15 2 24 -2 31
-17 31 -21 0 -24 -11 -8 -27 6 -6 9 -21 7 -34 -2 -19 -10 -25 -36 -27 -18 -2
-30 -8 -27 -13 4 -5 -7 -12 -24 -15 -17 -4 -36 -13 -42 -20 -9 -11 -6 -14 14
-14 31 0 187 78 184 92 -1 6 4 13 11 15 7 3 10 -1 7 -9 -4 -9 2 -14 16 -15 19
-2 21 2 15 29 -3 17 -6 34 -6 39 0 15 -27 10 -44 -7z"/>
<path d="M2 108 c1 -26 56 -90 70 -82 4 3 11 -1 14 -9 2 -7 11 -14 19 -14 8 0
12 4 9 9 -3 4 2 8 10 8 8 0 17 -4 20 -8 2 -4 31 -8 63 -9 l58 -2 -34 15 c-18
8 -54 14 -80 12 -44 -3 -48 -1 -98 50 -45 46 -52 50 -51 30z"/>
<path d="M59 103 c46 -62 47 -63 87 -61 37 1 37 1 6 5 -23 3 -41 16 -64 44
-35 44 -61 54 -29 12z"/>
<path d="M2580 80 c0 -44 8 -49 33 -22 22 24 22 27 -8 46 l-25 16 0 -40z"/>
<path d="M2417 74 c-4 -4 -7 -23 -6 -43 l1 -36 9 33 c11 36 9 58 -4 46z"/>
<path d="M2445 35 c0 -30 10 -32 24 -6 8 15 7 20 -5 25 -9 3 -16 6 -17 6 -1 0
-2 -11 -2 -25z"/>
<path d="M0 20 c0 -11 7 -20 15 -20 13 0 14 4 5 20 -6 11 -13 20 -15 20 -3 0
-5 -9 -5 -20z"/>
<path d="M2492 17 c-8 -10 -5 -13 13 -15 18 -1 23 2 19 13 -7 18 -18 19 -32 2z"/>
<path d="M1000 10 l-55 -7 65 -1 c36 -1 72 3 80 8 17 11 1 11 -90 0z"/>
</g>
</svg>
